<svg xmlns="http://www.w3.org/2000/svg" viewBox="0 0 128 128">
  <defs>
    <linearGradient id="trophy" x1="0" y1="0" x2="1" y2="1">
      <stop offset="0%" stop-color="#fde68a" />
      <stop offset="100%" stop-color="#f59e0b" />
    </linearGradient>
  </defs>
  <circle cx="64" cy="64" r="60" fill="#0f172a" opacity="0.8" />
  <path d="M40 36h48v16a24 24 0 0 1-16 22v10h12v12H44V84h12V74a24 24 0 0 1-16-22V36z" fill="url(#trophy)" />
  <path d="M32 40h8v8a12 12 0 0 1-12 12h-4v-8h4a4 4 0 0 0 4-4V40zm64 0h8v8a12 12 0 0 1-12 12h-4v-8h4a4 4 0 0 0 4-4V40z" fill="url(#trophy)" />
</svg>
